<?xml version="1.0" standalone="no"?>
<!DOCTYPE svg PUBLIC "-//W3C//DTD SVG 20010904//EN"
 "http://www.w3.org/TR/2001/REC-SVG-20010904/DTD/svg10.dtd">
<svg version="1.0" xmlns="http://www.w3.org/2000/svg"
 width="1003.000000pt" height="622.000000pt" viewBox="0 0 1003.000000 622.000000"
 preserveAspectRatio="xMidYMid meet">

<g transform="translate(0.000000,622.000000) scale(0.100000,-0.100000)"
fill="#000000" stroke="none">
<path d="M0 3110 l0 -3110 5015 0 5015 0 0 3110 0 3110 -5015 0 -5015 0 0
-3110z m5839 2152 l40 -79 76 -10 c125 -18 133 -39 45 -128 l-60 -60 14 -80
c15 -84 9 -115 -21 -115 -9 0 -50 17 -90 38 l-73 37 -69 -37 c-76 -42 -93 -45
-111 -23 -10 12 -9 33 1 101 l13 86 -62 57 c-91 84 -84 104 45 122 l80 12 27
56 c42 86 54 101 81 101 21 0 31 -12 64 -78z m-557 -545 c167 -53 286 -172
343 -340 52 -156 24 -349 -69 -474 -24 -32 -189 -203 -367 -380 l-324 -322
122 -338 c139 -386 143 -405 88 -460 -33 -33 -38 -35 -87 -31 -39 4 -57 12
-73 30 -11 13 -72 170 -135 349 l-115 324 -5 -393 -5 -394 -33 -29 c-39 -35
-76 -40 -132 -18 -54 21 -55 23 -60 448 l-5 394 -113 -324 c-99 -283 -118
-328 -148 -356 -28 -27 -42 -33 -78 -33 -36 0 -50 6 -74 30 -36 36 -44 70 -27
129 7 25 63 188 124 361 l112 315 -64 65 c-70 72 -109 143 -133 247 -31 132
-2 297 71 407 49 73 699 717 759 751 117 68 293 85 428 42z m-1012 -2972 l0
-186 38 30 c68 55 176 61 241 14 14 -11 36 -39 49 -63 20 -41 22 -57 22 -232
l0 -188 -39 0 -39 0 -4 178 c-2 146 -6 183 -21 209 -33 62 -145 64 -198 5 -36
-41 -49 -108 -49 -262 l0 -130 -40 0 -40 0 0 405 0 405 40 0 40 0 0 -185z
m876 119 c78 -37 84 -49 46 -87 -24 -23 -36 -29 -46 -22 -55 40 -73 49 -117
53 -102 10 -169 -40 -169 -125 0 -69 31 -95 167 -138 138 -43 198 -99 210
-192 14 -122 -67 -215 -210 -242 -94 -17 -186 6 -256 65 -35 29 -33 37 20 75
l28 19 25 -25 c72 -72 192 -71 263 0 27 27 33 41 33 74 0 65 -34 94 -165 142
-161 58 -215 111 -215 212 0 85 40 151 114 189 83 43 185 43 272 2z m-2148
-26 l-3 -43 -122 -3 -123 -3 0 -334 0 -335 -45 0 -45 0 0 335 0 335 -125 0
-125 0 0 45 0 45 296 0 295 0 -3 -42z m363 -208 c105 -20 173 -100 185 -219
l7 -61 -203 0 -202 0 6 -31 c9 -46 44 -89 90 -110 66 -30 128 -21 194 28 l32
24 31 -22 30 -21 -28 -30 c-41 -44 -96 -68 -168 -75 -178 -16 -300 127 -271
320 14 93 98 177 197 196 24 5 45 9 45 10 1 1 25 -4 55 -9z m594 -1 c53 -10
125 -45 139 -67 3 -6 -10 -22 -29 -36 l-35 -27 -28 21 c-56 41 -139 44 -196 7
-53 -35 -82 -153 -55 -224 23 -62 95 -113 159 -113 31 0 82 21 111 46 13 12
19 10 44 -16 33 -35 28 -45 -39 -78 -127 -64 -287 -17 -348 101 -29 57 -35
160 -14 223 28 84 99 146 189 164 23 4 42 8 43 9 0 1 27 -4 59 -10z m1755 -16
c19 -8 45 -24 57 -35 22 -20 22 -22 6 -41 -33 -36 -53 -41 -76 -18 -54 49
-162 44 -213 -12 -73 -79 -70 -196 7 -269 60 -57 147 -63 206 -14 l28 24 33
-27 32 -27 -22 -21 c-119 -108 -324 -69 -398 77 -63 123 -12 297 103 356 65
34 164 37 237 7z m533 -5 c86 -37 140 -129 140 -239 0 -108 -43 -177 -147
-232 -32 -17 -58 -22 -121 -22 -93 0 -141 20 -195 81 -46 53 -63 99 -63 174
-1 205 188 321 386 238z m637 10 c137 -51 198 -257 115 -388 -43 -67 -129
-119 -201 -120 -56 0 -133 29 -169 66 l-35 35 0 -166 0 -165 -40 0 -40 0 0
370 0 370 40 0 c38 0 40 -2 40 -30 0 -33 11 -38 31 -14 16 19 65 45 104 55 34
8 117 1 155 -13z m606 2 c71 -27 134 -128 134 -217 l0 -53 -195 0 c-190 0
-195 0 -195 -21 0 -46 55 -112 107 -130 59 -19 117 -4 194 52 13 10 22 7 48
-12 l33 -24 -41 -37 c-50 -44 -116 -68 -185 -68 -149 2 -251 110 -250 265 1
38 8 86 16 106 20 45 73 106 110 125 60 31 160 37 224 14z m-3166 -896 l25
-15 -33 7 c-39 7 -62 -8 -62 -42 0 -31 42 -53 64 -35 8 7 17 8 20 3 3 -5 -7
-15 -21 -21 -23 -10 -30 -9 -52 7 -37 27 -39 64 -5 91 31 25 32 25 64 5z m235
-9 c29 -28 31 -42 9 -73 -17 -25 -74 -31 -92 -9 -24 30 -23 56 2 82 31 31 50
32 81 0z m2312 3 c27 -25 29 -54 6 -80 -33 -37 -103 -11 -103 39 0 27 32 63
57 63 9 0 27 -10 40 -22z m-3857 -34 c23 -52 24 -64 10 -64 -5 0 -10 7 -10 15
0 21 -47 19 -59 -2 -5 -10 -12 -16 -14 -13 -7 8 35 110 45 110 5 0 18 -21 28
-46z m157 -36 c-2 -18 -4 -6 -4 27 0 33 2 48 4 33 2 -15 2 -42 0 -60z m350 27
c12 -30 17 -55 12 -55 -6 0 -12 7 -15 15 -8 20 -50 19 -58 -1 -4 -9 -9 -14
-12 -11 -10 9 29 107 42 107 6 0 20 -25 31 -55z m188 18 l25 -38 0 38 c0 20 5
37 10 37 6 0 10 -25 10 -55 0 -30 -4 -55 -8 -55 -5 0 -21 17 -35 37 l-27 38 0
-38 c0 -20 -4 -37 -10 -37 -5 0 -10 25 -10 55 0 30 4 55 10 55 5 0 21 -17 35
-37z m262 11 c15 -24 15 -29 2 -53 -11 -19 -24 -27 -52 -29 l-37 -3 0 55 0 56
35 0 c26 0 39 -6 52 -26z m762 4 l14 -22 17 22 c29 36 40 27 40 -33 0 -30 -4
-55 -10 -55 -5 0 -10 19 -10 42 0 42 0 42 -16 19 l-17 -24 -18 24 -19 24 0
-42 c0 -24 -4 -43 -10 -43 -5 0 -10 25 -10 55 0 60 15 72 39 33z m264 9 c7
-19 -4 -34 -28 -38 -13 -3 -22 -15 -26 -34 -5 -23 -7 -16 -8 28 -1 57 -1 57
28 57 16 0 31 -6 34 -13z m137 -26 c0 -79 55 -77 63 2 3 31 4 27 3 -13 -1 -53
-2 -55 -31 -58 -19 -3 -33 2 -42 14 -15 21 -18 94 -3 94 6 0 10 -17 10 -39z
m258 32 c-14 -3 -18 -15 -18 -54 0 -27 -4 -49 -10 -49 -5 0 -10 22 -10 49 0
39 -4 51 -17 54 -10 3 2 5 27 5 25 0 37 -2 28 -5z m175 0 c-41 -5 -45 -32 -5
-34 l27 -2 -27 -4 c-22 -3 -28 -10 -28 -28 0 -19 6 -24 33 -28 28 -3 26 -4
-10 -5 l-43 -2 0 55 0 55 43 -2 c36 -1 38 -2 10 -5z m214 -9 c3 -8 1 -20 -5
-26 -8 -8 -5 -19 9 -40 28 -39 10 -36 -23 4 l-27 33 -1 -32 c0 -18 -4 -33 -10
-33 -5 0 -10 25 -10 55 0 55 0 55 30 55 19 0 33 -6 37 -16z m310 -26 l17 -42
18 44 c10 23 21 40 24 37 10 -9 -29 -107 -42 -107 -6 0 -20 25 -31 55 -24 64
-11 76 14 13z m213 -13 c0 -30 -4 -55 -10 -55 -5 0 -10 25 -10 55 0 30 5 55
10 55 6 0 10 -25 10 -55z m195 46 c3 -6 -7 -9 -21 -8 -38 3 -40 -16 -3 -30 24
-9 30 -17 27 -35 -2 -17 -11 -24 -32 -26 -16 -2 -33 1 -40 8 -8 8 -1 10 24 8
26 -2 35 1 35 12 0 8 -10 16 -22 18 -27 4 -47 27 -39 47 6 17 61 21 71 6z
m155 -46 c0 -30 -4 -55 -10 -55 -5 0 -10 25 -10 55 0 30 5 55 10 55 6 0 10
-25 10 -55z m409 14 l30 -41 4 43 c3 40 4 38 5 -13 1 -32 -2 -58 -7 -58 -5 0
-20 17 -33 38 l-23 37 -3 -37 c-5 -58 -22 -45 -22 17 0 30 4 55 9 55 5 0 23
-19 40 -41z"/>
<path d="M4472 4009 c-119 -23 -222 -104 -275 -217 -29 -60 -32 -77 -32 -157
0 -80 3 -97 31 -155 46 -95 93 -143 182 -187 71 -36 82 -38 166 -38 81 0 98 3
158 32 340 161 277 653 -92 723 -60 11 -77 11 -138 -1z m90 -203 c8 -7 22 -31
32 -53 17 -38 21 -41 74 -49 72 -11 79 -31 27 -84 -37 -38 -37 -39 -30 -96 9
-73 -2 -81 -69 -47 l-50 25 -51 -25 c-68 -33 -80 -26 -70 48 l7 57 -43 44
c-52 53 -44 69 35 79 52 7 53 8 79 61 28 57 37 63 59 40z"/>
<path d="M3265 1548 c-21 -5 -50 -19 -63 -31 -25 -23 -52 -68 -52 -87 0 -6 54
-10 155 -10 l155 0 -6 28 c-18 80 -95 121 -189 100z"/>
<path d="M6080 1550 c-79 -14 -131 -81 -132 -170 0 -87 30 -141 96 -171 121
-55 245 25 246 158 0 60 -13 99 -43 131 -42 45 -103 64 -167 52z"/>
<path d="M6729 1550 c-83 -15 -133 -84 -132 -181 1 -85 32 -133 106 -164 51
-21 95 -19 147 8 97 49 123 204 47 285 -42 45 -103 64 -168 52z"/>
<path d="M7350 1550 c-50 -9 -78 -27 -100 -63 -40 -65 -37 -67 130 -67 167 0
165 -1 134 66 -25 52 -89 77 -164 64z"/>
<path d="M4480 705 c-28 -34 12 -85 54 -69 22 8 31 50 16 69 -16 19 -54 19
-70 0z"/>
<path d="M6802 708 c-17 -17 -15 -53 3 -68 12 -10 21 -10 40 -2 40 19 29 82
-15 82 -9 0 -21 -5 -28 -12z"/>
<path d="M2975 690 c-8 -13 -1 -24 14 -19 6 3 7 10 2 18 -6 10 -10 10 -16 1z"/>
<path d="M3476 685 c-3 -9 0 -15 9 -15 9 0 12 6 9 15 -4 8 -7 15 -9 15 -2 0
-5 -7 -9 -15z"/>
<path d="M3900 676 c0 -50 15 -60 44 -30 27 26 18 56 -21 68 -22 7 -23 4 -23
-38z"/>
<path d="M4945 711 c-7 -12 12 -24 25 -16 11 7 4 25 -10 25 -5 0 -11 -4 -15
-9z"/>
<path d="M5730 705 c0 -8 7 -15 15 -15 8 0 15 7 15 15 0 8 -7 15 -15 15 -8 0
-15 -7 -15 -15z"/>
</g>
</svg>
